<?xml version="1.0" ?><!DOCTYPE svg  PUBLIC '-//W3C//DTD SVG 1.1//EN'  'http://www.w3.org/Graphics/SVG/1.1/DTD/svg11.dtd'><svg height="100%" style="fill-rule:evenodd;clip-rule:evenodd;stroke-linejoin:round;stroke-miterlimit:2;" version="1.1" viewBox="0 0 32 32" width="100%" xml:space="preserve" xmlns="http://www.w3.org/2000/svg" xmlns:serif="http://www.serif.com/" xmlns:xlink="http://www.w3.org/1999/xlink"><path d="M15.003,11l-0.003,-0c-1.656,-0 -3,1.344 -3,3c0,1.656 1.344,3 3,3c0,-0 2,-0 2,-0c0.552,-0 1,0.448 1,1c0,0.552 -0.448,1 -1,1c-0,-0 -3,-0 -3,-0c-0.552,0 -1,0.448 -1,1c0,0.552 0.448,1 1,1l1.003,-0l0,1c0,0.552 0.449,1 1,1c0.552,0 1,-0.448 1,-1l0,-1c1.655,-0.002 2.997,-1.345 2.997,-3c0,-1.656 -1.344,-3 -3,-3c-0,-0 -2,-0 -2,-0c-0.552,-0 -1,-0.448 -1,-1c0,-0.552 0.448,-1 1,-1l3,-0c0.552,0 1,-0.448 1,-1c0,-0.552 -0.448,-1 -1,-1l-0.997,-0l0,-1c0,-0.552 -0.448,-1 -1,-1c-0.551,0 -1,0.448 -1,1l0,1Z"/><path d="M9.227,27c6.773,0.084 18.785,-0.012 18.785,-0.012c0.552,-0 1,-0.448 1,-1c0,-0.552 -0.448,-1 -1,-1l-18.749,-0l0,-2.547c0,-0.466 -0.886,-0.573 -1.343,-0.271l-4.237,2.805c-0.22,0.082 -0.404,0.239 -0.52,0.44c-0.104,0.158 -0.162,0.345 -0.163,0.539c-0.002,0.329 0.162,0.636 0.437,0.819l4.444,2.95c0.454,0.301 1.346,0.192 1.346,-0.276l0,-2.447Z"/><path d="M22.785,7c-6.773,0.084 -18.785,-0.012 -18.785,-0.012c-0.552,-0 -1,-0.448 -1,-1c0,-0.552 0.448,-1 1,-1l18.749,-0l0,-2.547c0,-0.466 0.886,-0.573 1.343,-0.271l4.237,2.805c0.22,0.082 0.404,0.239 0.52,0.44c0.104,0.158 0.162,0.345 0.163,0.539c0.002,0.329 -0.162,0.636 -0.437,0.819l-4.444,2.95c-0.453,0.301 -1.346,0.192 -1.346,-0.276l0,-2.447Z"/></svg>